<svg width="140" height="20" viewBox="0 0 140 20" fill="none" xmlns="http://www.w3.org/2000/svg">
<path d="M0 18.915L2.95781 1.08484H10.6829C12.04 1.08484 13.1506 1.26767 14.0148 1.63333C14.8847 1.99898 15.4995 2.51555 15.8591 3.18302C16.2244 3.85049 16.3317 4.63695 16.1809 5.54239C16.065 6.19245 15.8156 6.78737 15.4328 7.32715C15.0558 7.86113 14.5774 8.31385 13.9974 8.68531C13.4232 9.05097 12.7824 9.30345 12.0748 9.44275L12.04 9.61687C12.8056 9.64009 13.4725 9.83162 14.0409 10.1915C14.6092 10.5455 15.0268 11.0389 15.2936 11.6715C15.5604 12.2984 15.6242 13.0297 15.485 13.8655C15.3226 14.8406 14.9253 15.7083 14.2932 16.4686C13.661 17.229 12.8404 17.8268 11.8312 18.2621C10.8221 18.6974 9.67377 18.915 8.38625 18.915H0ZM5.49804 15.0495H7.75989C8.56024 15.0495 9.1895 14.8957 9.64767 14.5881C10.1116 14.2805 10.3871 13.8307 10.4741 13.2386C10.5437 12.8207 10.5089 12.4667 10.3697 12.1765C10.2305 11.8863 9.99565 11.6657 9.66507 11.5148C9.33449 11.3639 8.91982 11.2885 8.42105 11.2885H6.0896L5.49804 15.0495ZM6.61157 8.29354H8.59504C9.01261 8.29354 9.39539 8.22679 9.74337 8.09329C10.0913 7.9598 10.3784 7.76536 10.6046 7.50998C10.8308 7.2546 10.9729 6.94698 11.0309 6.58713C11.1179 6.02993 10.9845 5.60624 10.6307 5.31603C10.2827 5.02583 9.81296 4.88072 9.2214 4.88072H7.16833L6.61157 8.29354Z" fill="black"/>
<path d="M29.8652 1.08484H34.702L32.8056 12.5073C32.5852 13.8655 32.069 15.0408 31.2571 16.0333C30.4509 17.02 29.4244 17.7832 28.1775 18.323C26.9305 18.857 25.5444 19.124 24.0191 19.124C22.4822 19.124 21.1831 18.857 20.1218 18.323C19.0605 17.7832 18.2891 17.02 17.8077 16.0333C17.3322 15.0408 17.2046 13.8655 17.425 12.5073L19.3214 1.08484H24.1583L22.3314 12.0894C22.2445 12.6408 22.288 13.1313 22.4619 13.5608C22.6359 13.9903 22.9172 14.3298 23.3058 14.5794C23.6944 14.8232 24.1641 14.945 24.7151 14.945C25.2719 14.945 25.7851 14.8232 26.2549 14.5794C26.7305 14.3298 27.1248 13.9903 27.438 13.5608C27.7512 13.1313 27.9513 12.6408 28.0383 12.0894L29.8652 1.08484Z" fill="black"/>
<path d="M45.6655 6.65678C45.7177 6.08217 45.5785 5.63235 45.2479 5.30732C44.9174 4.97649 44.3606 4.81107 43.5776 4.81107C43.0789 4.81107 42.6613 4.86911 42.3249 4.9852C41.9943 5.10128 41.7363 5.26089 41.5507 5.46404C41.3709 5.66718 41.2578 5.90224 41.2114 6.16923C41.1592 6.37818 41.1621 6.56972 41.2201 6.74384C41.2839 6.91216 41.4028 7.06597 41.5768 7.20527C41.7566 7.34456 41.9914 7.46935 42.2814 7.57963C42.5772 7.68991 42.9281 7.78858 43.3341 7.87564L44.726 8.18906C45.6771 8.39801 46.4746 8.6737 47.1183 9.01615C47.7679 9.35279 48.2782 9.75327 48.6494 10.2176C49.0206 10.6819 49.2642 11.2014 49.3802 11.776C49.502 12.3506 49.5049 12.9774 49.3889 13.6565C49.1917 14.829 48.7364 15.8215 48.023 16.634C47.3097 17.4466 46.3789 18.0647 45.2305 18.4884C44.0822 18.9121 42.7541 19.124 41.2462 19.124C39.7035 19.124 38.3928 18.8947 37.314 18.4362C36.2411 17.9719 35.464 17.2638 34.9826 16.3119C34.507 15.3542 34.391 14.1325 34.6346 12.6466H39.2279C39.1583 13.1922 39.2163 13.6507 39.4019 14.0222C39.5875 14.3937 39.8862 14.6751 40.298 14.8667C40.7097 15.0582 41.223 15.154 41.8378 15.154C42.3597 15.154 42.8063 15.0901 43.1775 14.9625C43.5486 14.8348 43.8415 14.6577 44.0561 14.4314C44.2707 14.205 44.4012 13.9467 44.4476 13.6565C44.494 13.3895 44.4476 13.1516 44.3084 12.9426C44.1692 12.7337 43.9169 12.545 43.5515 12.3767C43.1862 12.2084 42.6845 12.0546 42.0465 11.9153L40.3415 11.5322C38.8278 11.184 37.6852 10.6094 36.9139 9.80841C36.1425 9.00744 35.8699 7.91047 36.0961 6.51748C36.2817 5.37987 36.7486 4.38737 37.4967 3.53997C38.2507 2.68677 39.2076 2.0251 40.3675 1.55497C41.5333 1.07903 42.8237 0.841064 44.2388 0.841064C45.6771 0.841064 46.8805 1.08193 47.8491 1.56368C48.8234 2.04542 49.5223 2.72159 49.9456 3.59221C50.3748 4.46283 50.4908 5.48435 50.2936 6.65678H45.6655Z" fill="black"/>
<path d="M68.819 7.77117H63.9822C64.017 7.35907 63.9938 6.98761 63.9126 6.65678C63.8314 6.32594 63.6922 6.04154 63.495 5.80358C63.2978 5.5598 63.0397 5.37407 62.7207 5.24638C62.4018 5.11869 62.0219 5.05484 61.5811 5.05484C60.7344 5.05484 59.9775 5.2667 59.3106 5.69039C58.6436 6.10829 58.0897 6.70902 57.649 7.49257C57.2082 8.27032 56.895 9.19898 56.7094 10.2785C56.547 11.3233 56.5412 12.191 56.692 12.8817C56.8486 13.5724 57.1531 14.0889 57.6055 14.4314C58.0636 14.7738 58.6581 14.945 59.3889 14.945C59.876 14.945 60.3226 14.887 60.7286 14.7709C61.1403 14.6548 61.5057 14.4894 61.8247 14.2747C62.1495 14.0541 62.425 13.7929 62.6511 13.4911C62.8831 13.1835 63.06 12.844 63.1818 12.4725H68.0535C67.8679 13.227 67.5373 13.999 67.0618 14.7883C66.5862 15.5719 65.9714 16.2945 65.2175 16.9562C64.4635 17.612 63.5762 18.1431 62.5555 18.5494C61.5347 18.9557 60.3864 19.1588 59.1105 19.1588C57.4402 19.1588 55.999 18.7932 54.7869 18.0618C53.5805 17.3305 52.7048 16.2626 52.1596 14.858C51.6203 13.4534 51.513 11.7412 51.8378 9.72135C52.1625 7.77117 52.8034 6.13731 53.7603 4.81978C54.7173 3.50225 55.8801 2.50974 57.2488 1.84227C58.6175 1.1748 60.0732 0.841064 61.6159 0.841064C62.7816 0.841064 63.8256 0.994873 64.7477 1.30249C65.6757 1.61011 66.4557 2.05993 67.0879 2.65194C67.7258 3.23816 68.1956 3.96077 68.4972 4.81978C68.7988 5.67879 68.906 6.66258 68.819 7.77117Z" fill="black"/>
<path d="M73.2645 18.915H68.0448L76.8834 1.08484H83.495L86.418 18.915H81.1983L79.4585 5.99511H79.3193L73.2645 18.915ZM73.4733 11.8805H83.2862L82.6599 15.5022H72.8469L73.4733 11.8805Z" fill="black"/>
<path d="M93.3797 1.08484L94.9456 13.6565H95.0848L100.826 1.08484H106.29L97.4511 18.915H90.8395L87.9165 1.08484H93.3797Z" fill="black"/>
<path d="M106.757 18.915H101.538L110.376 1.08484H116.988L119.911 18.915H114.691L112.951 5.99511H112.812L106.757 18.915ZM106.966 11.8805H116.779L116.153 15.5022H106.34L106.966 11.8805Z" fill="black"/>
<path d="M140 1.08484L137.042 18.915H133.006L128.134 9.54722H128.03L126.464 18.915H121.627L124.585 1.08484H128.691L133.493 10.4178H133.632L135.163 1.08484H140Z" fill="black"/>
</svg>
